<svg width="329" height="110" fill="none" xmlns="http://www.w3.org/2000/svg"><path d="M72.55 36.275C72.55 16.24 56.308 0 36.274 0v36.275h36.274z" fill="#2A61ED"/><path d="M72.55 72.987c0-20.276-16.241-36.712-36.275-36.712v36.712h36.274z" fill="#FF3D31"/><path d="M0 36.275C0 56.55 16.241 72.987 36.275 72.987V36.275H0z" fill="#FC8881"/><path d="M36.275 109.261c20.034 0 36.275-16.24 36.275-36.274H36.275v36.274z" fill="#8847C4"/><path d="M0 72.986c0 20.034 16.241 36.275 36.275 36.275V72.986H0z" fill="#2A61ED"/><path d="M36.275 0C16.24 0 0 16.241 0 36.275h36.275V0z" fill="#000"/><path d="M134.246 62.03c0-8.338-6.562-9.906-14.519-11.189-7.05-1.14-9.075-2.067-9.075-4.703 0-2.851 3.421-5.132 8.167-5.132 4.398 0 7.818 1.996 8.656 5.915h6.003c-.768-7.198-6.352-11.474-14.659-11.474-9.633 0-14.1 5.63-14.1 10.904 0 6.913 5.305 9.051 14.03 10.334 8.796 1.212 9.773 3.136 9.773 5.702 0 3.207-3.42 5.986-9.005 5.986-5.165 0-9.284-2.637-10.051-6.913h-6.003c.977 7.769 7.329 12.544 16.054 12.544 8.586 0 14.729-4.633 14.729-11.974zM156.648 67.518c-4.398.285-8.307-1.354-8.307-7.84V42.147h8.167v-5.772h-8.167v-7.84h-5.863v7.84h-4.887v5.772h4.887V59.68c0 9.336 5.793 14.396 14.17 13.398v-5.559zM192.663 36.374h-5.933v22.52c0 5.488-4.049 9.55-9.354 9.55-5.724 0-8.865-3.848-8.865-9.692V36.374h-5.863v22.093c0 9.051 5.026 15.465 13.821 15.465 4.397 0 8.027-1.853 10.47-4.846v3.991h5.724V36.374zM232.601 61.674h-6.352c-1.955 3.991-5.654 6.7-10.401 6.7-6.631 0-12.076-6.058-12.076-13.613s5.445-13.755 12.076-13.755c4.677 0 8.376 2.708 10.401 6.7h6.352c-2.443-7.413-8.726-12.259-16.753-12.259-9.912 0-18.009 8.695-18.009 19.314 0 10.62 8.097 19.171 18.009 19.171 8.027 0 14.379-4.846 16.753-12.258zM253.925 35.447c-10.192 0-18.079 8.695-18.079 19.385 0 10.548 7.887 19.1 18.079 19.1 10.261 0 18.079-8.552 18.079-19.1 0-10.69-7.818-19.385-18.079-19.385zm0 32.926c-6.632 0-12.076-6.058-12.076-13.54 0-7.627 5.444-13.827 12.076-13.827 6.701 0 12.145 6.2 12.145 13.826 0 7.483-5.444 13.541-12.145 13.541zM329 50.342c0-9.122-5.026-14.895-13.332-14.895-5.166 0-9.005 2.495-11.239 6.272-2.233-3.92-6.003-6.272-11.098-6.272-3.979 0-7.33 1.853-9.563 4.918v-3.991h-5.724v36.703h5.933v-22.45c0-5.487 3.63-9.62 8.516-9.62 5.305 0 8.097 3.491 8.097 9.193v22.877h5.864v-22.45c0-5.487 3.56-9.62 8.446-9.62 5.514 0 8.167 3.491 8.167 9.193v22.877H329V50.342z" fill="#000000"/></svg>