<svg width="1577" height="1705" fill="none" xmlns="http://www.w3.org/2000/svg"><path d="M493 2H276v254h217V2z" fill="#fff" stroke="#64798A" stroke-width="3.2" stroke-miterlimit="10"/><path d="M373 207l-11 24-10-24h-8l14 33h8l14-33h-7zm48 33v-33h-6l-13 20-12-20h-7v33h7v-20l10 17h4l10-17v20h7z" fill="#3A556A"/><path d="M408 40l2 1c8 5 16 9 25 11 9 1 18 1 26-2l17-5 2-1-1 2-14 50-3 11-2 2c-9 4-18 7-28 8-11 1-23-1-32-6l-9-6a2 2 0 01-1-2l7-23 10-38 1-2z" fill="#2B9800"/><path d="M380 97l-9-5c-9-5-18-8-28-8-9 1-18 3-26 6l-8 3h-1v-2l17-56 1-5 2-2c10-4 20-7 31-8 11 0 22 2 31 8l7 4a2 2 0 011 2l-16 56-2 7z" fill="#E05B49"/><path d="M358 174l-3-2c-8-5-15-9-24-10-9-2-18-1-26 1l-17 6h-1v-3a64757 64757 0 0020-62c10-4 19-6 30-7s23 1 33 7l5 4a2 2 0 011 3 14078 14078 0 00-17 61l-1 2z" fill="#00BED6"/><path d="M387 115l8 5c8 5 17 8 26 8 11 0 21-2 31-5l6-2-1 4a110768 110768 0 00-18 59c-8 3-16 6-24 7a57 57 0 01-47-12v-1l10-35 8-25 1-3z" fill="#FFD85A"/><path d="M1575 2h-218v254h218V2z" fill="#fff" stroke="#64798A" stroke-width="3.2" stroke-miterlimit="10"/><path d="M1454 207l-10 24-10-24h-9l15 33h7l15-33h-8zm48 33v-33h-6l-12 20-13-20h-6v33h7v-20l10 17h3l10-17v20h7z" fill="#3A556A"/><path d="M1490 40l2 1c7 5 15 9 24 11 9 1 18 1 27-2l17-5 1-1v2l-14 50-4 11-1 2c-10 4-19 7-29 8-11 1-22-1-32-6l-9-6a2 2 0 01-1-2l7-23 11-38 1-2z" fill="#2B9800"/><path d="M1461 97l-8-5c-9-5-18-8-29-8-9 1-17 3-25 6l-8 3h-1v-2l16-56 2-5 1-2c10-4 21-7 32-8 11 0 21 2 31 8l7 4a2 2 0 011 2l-16 56-2 7h-1z" fill="#E05B49"/><path d="M1439 174l-3-2c-7-5-15-9-23-10-9-2-18-1-27 1l-17 6h-1l1-3a64758 64758 0 0019-62c10-4 20-6 30-7 12-1 23 1 33 7l6 4 1 1v2a14859 14859 0 00-18 61l-1 2z" fill="#00BED6"/><path d="M1468 115l9 5c7 5 16 8 25 8 11 0 21-2 31-5l6-2-1 4a87025 87025 0 00-18 59c-7 3-15 6-23 7a57 57 0 01-47-12v-1l10-35 7-25 1-3z" fill="#FFD85A"/><path d="M251 2H34v254h217V2z" fill="#fff" stroke="#64798A" stroke-width="3.2" stroke-miterlimit="10"/><path d="M131 207l-11 24-10-24h-8l14 33h8l15-33h-8zm48 33v-33h-6l-13 20-12-20h-7v33h8v-20l9 17h4l10-17v20h7z" fill="#3A556A"/><path d="M166 40l3 1c7 5 15 9 24 11 9 1 18 1 27-2l16-5 2-1v2l-15 50-3 11-2 2c-9 4-18 7-28 8-11 1-22-1-32-6l-9-6a2 2 0 01-1-2l7-23 11-38v-2z" fill="#2B9800"/><path d="M138 97l-9-5c-8-5-18-8-28-8-9 1-17 3-26 6l-8 3h-1l1-2 16-56 1-5 2-2c10-4 20-7 31-8 11 0 22 2 31 8l7 4a2 2 0 011 2l-16 56-2 7z" fill="#E05B49"/><path d="M116 174l-3-2c-7-5-15-9-24-10-9-2-18-1-26 1l-17 6h-1l1-3a64758 64758 0 0019-62c10-4 20-6 30-7 11-1 23 1 33 7l6 4a2 2 0 011 3 14078 14078 0 00-18 61l-1 2z" fill="#00BED6"/><path d="M145 115l8 5c8 5 17 8 26 8 11 0 21-2 31-5l6-2-1 4a110768 110768 0 00-18 59c-8 3-15 6-23 7a57 57 0 01-47-12v-1l10-35 7-25 1-3z" fill="#FFD85A"/><path d="M1036 3H819v255h217V3z" fill="#fff" stroke="#64798A" stroke-width="3.2" stroke-miterlimit="10"/><path d="M908 208l-10 24-10-24h-9l15 33h8l14-33h-8zm49 33v-33h-7l-12 21-13-21h-6v33h7v-19l10 16h4l9-17 1 20h7zm30-97c4 1 6 5 7 10v3l3 5 5 8a6 6 0 01-2 6c-2 3-5 4-8 5l-10 6-7 7c-4 3-9 6-14 7a15 15 0 01-16-10v-1h-1l-13-1h-14a673 673 0 00-11 2c-3 5-7 7-13 8-6 0-11-2-16-4l-13-4-10-1c-7-2-9-6-8-12l1-2v-10-6a9 9 0 016-7l5-3 4-2 5-6v-1c-1-8 1-15 4-23 4-11 11-21 19-31 4-5 7-12 9-19V54c-1-7-1-14 1-22 2-11 9-17 20-19h15c8 2 14 7 17 14l4 17v15c0 7 2 15 7 21l12 16c6 8 10 16 12 26 2 7 2 15 0 22zm-97-46l-1 1c-3 6-7 12-9 19-1 4-2 8-1 12 1 6 4 11 9 14l12 9 5 8c1 4 0 7-4 8h-2l5 7h1c5 4 12 6 18 6 9 0 16-3 23-8l1-1 3-15 1-12a12 12 0 017-8 2 2 0 001-1c0-2 1-5 4-5h4c4 0 8 2 11 4 2 2 4 4 3 7l2-1a7 7 0 00-3-7l-8-5c1-7 0-13-3-19-2-6-6-12-11-16l1 2c5 6 9 13 10 21 1 3 0 7-1 11l-4-1v-1c-2-7-4-14-8-21-6-11-10-21-13-33l-2-4c-1 2-3 4-6 5l-8 4a15 15 0 01-11 2l-6-4-5-4-3 12c-2 9-6 18-10 26l-6 21-1 5-3-6c-1-5-1-11 1-16l6-13 1-3zm2 98h3c8-1 12-8 9-15l-6-9-7-10-8-14-5-6a7 7 0 00-9 1l-5 5c-1 3-3 4-6 5l-3 1a7 7 0 00-5 8v14l-1 5a5 5 0 003 5l2 1 10 2c5 0 9 1 14 3 4 3 9 4 14 4zm66-55h-1l-3 6-2 11-1 10-4 13v8c2 7 8 11 15 9l10-5 5-5c4-4 9-6 13-9l7-4c3-1 3-3 2-6l-4-5c-1-2-3-4-3-7l-2-7a7 7 0 00-6-4h-5l-8 5c-5 2-9 0-11-5l-2-5zm-39-62l8-2 8-4 3-3 2-1c2-4 2-7-2-8l-13-6a12 12 0 00-13 1l-8 7c-2 1-3 3-1 5l3 4 6 5 7 2zm9-25c-1-2 0-5 1-6 1-2 2-3 3-2a4 4 0 013 2c1 3 1 6-1 9l4 2 1-1c3-4 3-12 0-16-4-5-9-5-13-1-3 3-4 7-3 11a1 1 0 000 1l5 1zm-16 0c4-2 4-2 4-5a11 11 0 00-4-8 5 5 0 00-6 0l-2 3c-2 3-2 6-1 8 0 3 1 5 3 7l2-1a8 8 0 01-1-9l2-2 2 1 1 2v4z" fill="#3A556A"/><path d="M890 98l-1 3-6 13a25 25 0 002 22l1-5 6-21 11-26 2-11 5 3 6 4a15 15 0 0011-2l9-4 5-5 2 4c3 12 8 23 13 33 4 7 6 14 8 21v1l4 1c1-4 2-8 1-11-1-8-4-15-10-21l-1-1v-1c5 5 9 10 11 16 3 6 4 13 3 19l8 5a7 7 0 013 7l-2 1c1-3-1-5-3-7-3-2-7-4-11-4h-4c-3 1-4 3-4 5a2 2 0 01-1 1 12 12 0 00-7 9l-1 11-3 15-1 1c-7 5-14 8-23 8a31 31 0 01-19-6l-5-7h2c4-1 5-4 4-7s-2-6-5-8c-3-4-8-7-12-10-5-3-8-8-9-14-1-4 0-8 1-12 2-7 6-13 9-19l1-1z" fill="#fff"/><path d="M892 196c-5 0-10-1-14-4-5-2-9-3-14-3l-10-2-2-1a5 5 0 01-3-5l1-5v-9l-1-5a7 7 0 015-8l4-1c3-1 5-2 6-5l5-5a7 7 0 019-1c2 1 4 3 5 6l8 13 7 10 6 9c3 7-1 15-9 16h-3zm66-55l2 5c2 5 6 7 11 5l8-5 2-1 3 1a7 7 0 016 4l2 7c0 3 2 5 3 7l4 5c1 3 1 5-2 6l-7 4c-4 2-9 5-13 9l-5 5-10 5c-7 2-13-2-15-9v-8l4-13 1-10 2-11 3-6h1zm-39-62l-7-2-6-6-3-3c-1-2-1-4 1-5a3167 3167 0 0114-10l7 2 13 6c4 1 5 4 2 8l-2 1-3 3-8 4-8 2zm-14-14h-1l1 2 4 3c4 3 8 4 13 3a34 34 0 0015-8v-2l-1 1-1 1-9 6c-3 1-6 2-9 1-5 0-8-3-11-7h-1zm12-8a3 3 0 00-3 0v1h1l2-1zm5 0l2 1h1v-1h-3z" fill="#FFD85A"/><path d="M928 54l-5-1a1 1 0 010-1c-1-4 0-8 3-11 4-4 9-4 13 1s3 12 0 16l-1 1-4-2c2-3 2-6 1-9a4 4 0 00-3-2c-1-1-2 0-3 2-1 1-2 4-1 6zm-16 0v-4l-1-2-2-1-2 2a8 8 0 001 9l-2 1c-2-2-3-4-3-7-1-2-1-5 1-8l2-3a5 5 0 016 0 11 11 0 014 8c0 3 0 4-4 5z" fill="#fff"/><path d="M905 65h1c2 4 6 7 11 7 3 1 6 0 9-1l9-6 1-1 1-1v2l-5 4a34 34 0 01-10 4c-5 1-9 0-13-3l-4-3-1-2h1zm12-8l-2 1h-1v-1a3 3 0 013 0zm5 0h3v1h-1l-2-1z" fill="#000"/><path d="M121 688v128h1326V632M344 655v161m563-303v1005" stroke="#39556A" stroke-width="8.9" stroke-linecap="round" stroke-linejoin="round"/><path d="M209 732l20-18-10-12-19 13 9 17zm0-384l20 11-13 11-17-5 10-17z" fill="#66788C"/><path d="M229 359H25v355h204V359z" fill="#66788C"/><path d="M209 348H6v384h203V348z" fill="#3A556A"/><path d="M196 370H19v112h177V370z" fill="#66788C"/><path d="M196 404H19v3h177v-3zm0 37H19v2h177v-2z" fill="#00BED6"/><path d="M176 512c5 0 8-3 8-7s-3-8-8-8c-4 0-8 4-8 8s4 7 8 7z" fill="#E05B4A"/><path d="M151 491H19v28h132v-28zm45 64H19v149h177V555z" fill="#66788C"/><path d="M196 529H19v14h177v-14z" fill="#00BED6"/><path d="M447 732l20-18-10-12-19 13 9 17zm0-384l20 11-12 11-17-5 9-17z" fill="#66788C"/><path d="M467 359H263v355h204V359z" fill="#66788C"/><path d="M447 348H244v384h203V348z" fill="#3A556A"/><path d="M434 370H257v112h177V370z" fill="#66788C"/><path d="M434 404H257v3h177v-3zm0 37H257v2h177v-2z" fill="#00BED6"/><path d="M414 512c5 0 8-3 8-7s-3-8-8-8c-4 0-8 4-8 8s4 7 8 7z" fill="#E05B4A"/><path d="M389 491H257v28h132v-28zm45 64H257v149h177V555z" fill="#66788C"/><path d="M434 529H257v14h177v-14z" fill="#00BED6"/><path d="M990 732l20-18-10-12-19 13 9 17zm0-384l20 11-13 11-16-5 9-17z" fill="#66788C"/><path d="M1010 359H806v355h204V359z" fill="#66788C"/><path d="M990 348H787v384h203V348z" fill="#3A556A"/><path d="M977 370H800v112h177V370z" fill="#66788C"/><path d="M977 404H800v3h177v-3zm0 37H800v2h177v-2z" fill="#00BED6"/><path d="M957 512c5 0 8-3 8-7s-3-8-8-8c-4 0-8 4-8 8s4 7 8 7z" fill="#E05B4A"/><path d="M932 491H800v28h132v-28zm45 64H800v149h177V555z" fill="#66788C"/><path d="M977 529H800v14h177v-14z" fill="#00BED6"/><path d="M995 1278l19-17-10-13-19 13 10 17zm0-384l19 12-12 10-17-5 10-17z" fill="#66788C"/><path d="M1014 906H811v355h203V906z" fill="#66788C"/><path d="M995 894H791v384h204V894z" fill="#3A556A"/><path d="M982 916H804v112h178V916z" fill="#66788C"/><path d="M982 951H804v2h178v-2zm0 36H804v2h178v-2z" fill="#00BED6"/><path d="M962 1058c4 0 8-3 8-7s-4-7-8-7c-5 0-8 3-8 7s3 7 8 7z" fill="#E05B4A"/><path d="M936 1037H804v28h132v-28zm46 65H804v149h178v-149z" fill="#66788C"/><path d="M982 1075H804v14h178v-14z" fill="#00BED6"/><path d="M1533 732l20-18-10-12-20 13 10 17zm0-384l20 11-13 11-17-5 10-17z" fill="#66788C"/><path d="M1553 359h-204v355h204V359z" fill="#66788C"/><path d="M1533 348h-203v384h203V348z" fill="#3A556A"/><path d="M1520 370h-177v112h177V370z" fill="#66788C"/><path d="M1520 404h-177v3h177v-3zm0 37h-177v2h177v-2z" fill="#00BED6"/><path d="M1500 512c5 0 8-3 8-7s-3-8-8-8c-4 0-8 4-8 8s4 7 8 7z" fill="#E05B4A"/><path d="M1475 491h-132v28h132v-28zm45 64h-177v149h177V555z" fill="#66788C"/><path d="M1520 529h-177v14h177v-14z" fill="#00BED6"/><path d="M1152 1358H664v293h488v-293z" fill="#3A556A"/><path d="M1132 1377H684v253h448v-253z" fill="#E1E6EA"/><path d="M961 1651H846v31h115v-31z" fill="#2F3845"/><path d="M1005 1682H797v22h208v-22z" fill="#617B8A"/><path d="M459 81H241v254h218V81z" fill="#fff" stroke="#64798A" stroke-width="3.2" stroke-miterlimit="10"/><path d="M338 285l-10 24-11-24h-8l15 34h7l15-34h-8zm48 34v-34h-6l-12 21-13-21h-6v34h7v-20l10 16h3l10-16v20h7z" fill="#3A556A"/><path d="M374 118l2 2c7 5 15 9 24 10 9 2 18 1 27-1l17-6h1v2l-14 49-4 12-1 2c-10 4-19 7-29 8-11 1-22-1-32-7l-9-5a2 2 0 01-1-2v-1l7-23 11-37 1-3z" fill="#2B9800"/><path d="M345 176l-8-5c-9-5-18-8-29-8-9 0-17 3-26 6l-7 3h-1v-2l16-56 2-5 1-2c10-4 21-7 32-8s21 2 31 7l7 5a2 2 0 011 1v1l-16 55-2 7-1 1z" fill="#E05B49"/><path d="M323 252l-3-2c-7-4-15-8-24-10-8-1-17 0-26 2l-17 5-1 1 1-4a63835 63835 0 0019-61c10-4 20-7 30-8 12-1 23 2 33 8l6 4a2 2 0 011 2 14078 14078 0 00-18 62l-1 1z" fill="#00BED6"/><path d="M352 194l9 5c7 5 16 7 25 8 11 0 21-2 31-5l6-2-1 4a121849 121849 0 00-18 59l-23 7a57 57 0 01-47-12v-2l10-34 7-26 1-2z" fill="#FFD85A"/><path d="M998 81H780v254h218V81z" fill="#fff" stroke="#64798A" stroke-width="3.2" stroke-miterlimit="10"/><path d="M877 285l-10 24-10-24h-9l15 34h7l15-34h-8zm49 34l-1-34h-6l-12 21-13-21h-6v34h7v-20l10 16h3l10-16v20h8z" fill="#3A556A"/><path d="M913 118l2 2c7 5 15 9 24 10 9 2 18 1 27-1l17-6h1v2l-14 49-4 12-1 2c-10 4-19 7-29 8-11 1-22-1-32-7l-9-5a2 2 0 01-1-2v-1l7-23 11-37 1-3z" fill="#2B9800"/><path d="M884 176l-8-5c-9-5-18-8-29-8-8 0-17 3-25 6l-8 3h-1v-2l16-56 2-5 1-2c10-4 21-7 32-8s21 2 31 7l7 5a2 2 0 011 1v1l-16 55-2 7-1 1z" fill="#E05B49"/><path d="M862 252l-3-2c-7-4-15-8-23-10-9-1-18 0-27 2l-17 5-1 1 1-4a64758 64758 0 0019-61c10-4 20-7 30-8 12-1 23 2 33 8l6 4a2 2 0 011 2 14078 14078 0 00-18 62l-1 1z" fill="#00BED6"/><path d="M891 194l9 5c7 5 16 7 25 8 11 0 21-2 31-5l6-2-1 4a121849 121849 0 00-18 59l-23 7a57 57 0 01-47-12v-2l10-34 7-26 1-2z" fill="#FFD85A"/><path d="M220 81H2v254h218V81z" fill="#fff" stroke="#64798A" stroke-width="3.2" stroke-miterlimit="10"/><path d="M92 285l-10 24-10-24h-9l15 34h7l15-34h-8zm49 34v-34h-7l-12 21-13-21h-6v34h7v-20l10 16h3l10-16v20h8zm30-98c4 2 6 6 6 10l1 3 3 6c2 2 4 4 5 8a6 6 0 01-2 6l-8 5c-4 1-7 3-11 6l-6 6c-4 4-9 6-14 7a15 15 0 01-16-10l-1-1-13-1-14 1a673 673 0 00-11 2c-3 5-7 7-13 7s-11-1-16-4c-5-2-9-3-14-3l-10-2c-6-1-8-5-7-11l1-2v-11-6a9 9 0 015-7l6-2 4-3 5-6v-1c-1-8 1-15 4-22 4-12 11-22 19-32 4-5 7-12 8-19l1-13c-1-8-1-15 1-22 2-11 9-18 20-20h15c8 2 14 7 17 14l4 17v15c-1 8 2 15 7 21l12 16c6 8 10 16 12 26 2 7 2 15 0 22zm-97-45h-1c-4 6-7 12-9 19-1 4-2 8-1 13 0 6 4 10 9 13l12 10 5 8c1 4 0 6-4 7h-2l5 7 1 1c5 3 12 5 18 5 8 0 16-3 23-8l1-1 2-15 2-11a12 12 0 017-8 2 2 0 001-2c0-2 1-4 3-5h5l11 4c2 2 4 4 3 7l2-1a7 7 0 00-3-6l-9-6c2-6 1-12-2-19-2-6-6-11-11-15l1 2c5 5 9 12 10 20 1 4 0 8-1 11h-4l-1-1c-1-8-4-15-7-22-6-10-10-21-14-32l-1-4c-1 2-3 3-6 4l-8 4a15 15 0 01-11 2c-3 0-4-2-6-4l-5-3-3 12c-2 9-6 17-10 26-3 6-6 13-6 20l-1 5v1l-3-7c-2-5-1-11 1-16l6-13 1-2zm2 98l3-1c8-1 12-8 9-15l-6-9-7-10-8-14c-1-2-3-4-6-5a7 7 0 00-9 1l-4 5c-1 2-3 4-6 5l-4 1a7 7 0 00-5 7l1 5v9l-1 6a5 5 0 003 5l2 1 10 1c5 0 9 2 13 4 5 2 10 4 15 4zm66-56l-1 1c-2 1-3 3-3 5-2 4-2 8-2 12l-1 10-4 12v9c2 6 8 10 15 8 4 0 7-2 10-5l5-5c4-4 8-6 13-8l7-4c2-2 3-4 2-7l-4-5c-1-2-3-4-3-7l-2-6a7 7 0 00-6-5h-3l-2 1-8 5c-5 1-9-1-11-6l-2-5zm-39-62l8-2 7-4 4-2 2-2c2-3 2-7-2-8l-13-6a12 12 0 00-13 2l-8 6c-2 1-3 3-2 5l4 4 6 5c2 2 5 2 7 2zm8-25l2-6c0-1 1-2 3-2a4 4 0 013 2c1 4 1 7-1 10l3 1h2c3-5 3-13-1-17-3-4-8-5-12-1-3 3-4 7-3 11a1 1 0 000 1l4 1zm-15 0c4-1 4-1 4-5a11 11 0 00-4-7 5 5 0 00-7 0l-2 3-1 8 4 7 2-2a8 8 0 01-1-9l2-2 2 2 1 2v3z" fill="#3A556A"/><path d="M74 176l-1 2-6 13a25 25 0 002 23l1-6c1-7 3-14 6-20 4-9 8-17 10-26l3-12 5 3c2 2 3 4 6 4a15 15 0 0011-1l8-5c3-1 5-2 6-4l1 4c4 11 8 22 14 32l8 22v1h4c1-3 2-7 1-11-1-8-5-15-10-20l-1-2v-1c5 5 9 10 11 16 3 6 4 13 2 19l9 6a7 7 0 013 6l-2 1c1-3-1-5-3-7l-11-4h-5c-2 1-3 3-3 5a2 2 0 01-1 2 12 12 0 00-7 8l-2 11-2 15-1 1c-7 5-15 8-23 8a31 31 0 01-19-6l-5-7h2c4-1 5-3 4-7l-5-8-12-10c-5-3-9-7-9-13-1-5 0-9 1-13 2-7 5-13 9-19h1z" fill="#fff"/><path d="M76 274c-5 0-10-2-15-4-4-2-8-4-13-4l-10-1-2-1a5 5 0 01-4-5l1-6c1-3 2-6 1-9l-1-5a7 7 0 015-7l4-1 6-5 4-5a7 7 0 019-1c3 1 5 3 6 5l8 14 7 10 6 9c3 7-1 14-9 15l-3 1zm66-56l2 5c2 5 6 7 11 5 3-1 6-2 8-5h5a7 7 0 016 5l2 6c0 3 2 5 3 7l4 5c1 3 0 5-2 7l-7 4c-4 2-9 4-13 8l-5 5c-3 3-6 5-10 5-7 2-13-2-15-8v-9l4-12 1-10c0-4 0-8 2-12 0-2 2-4 3-5l1-1zm-39-62c-2 0-5 0-7-2l-6-5-4-4c-1-2 0-4 2-5a3413 3413 0 0114-9c3-1 5 0 7 1l13 6c4 1 4 5 2 8l-2 2-4 2-7 4-8 2zm-14-14h-1l1 2 4 3c3 3 8 5 13 3a34 34 0 0014-8l1-1h-1l-2 1c-2 3-5 5-9 6l-8 2c-5-1-9-4-12-7v-1zm12-8a3 3 0 00-3 0v1l1 1 2-2zm4 0l3 2 1-1-4-1z" fill="#FFD85A"/><path d="M111 131l-4-1a1 1 0 010-1c-1-4 0-8 3-11 4-4 9-3 12 1s4 12 1 17h-2l-3-1c2-3 2-6 1-10a4 4 0 00-3-2c-2 0-3 1-3 2l-2 6zm-15 0v-3l-1-2c-1-1-1-2-3-2l-2 2a8 8 0 002 9l-2 2-4-7 1-8 2-3a5 5 0 017 0 11 11 0 014 7c0 4 0 4-4 5z" fill="#fff"/><path d="M89 142v1c3 3 7 6 12 7l8-2c4-1 7-3 9-6l2-1h1l-1 1-4 4-10 4c-5 2-10 0-13-3l-4-3-1-2h1zm12-8l-2 2-1-1v-1a3 3 0 013 0zm4 0l4 1-1 1-3-2z" fill="#000"/><path d="M1541 81h-217v254h217V81z" fill="#fff" stroke="#64798A" stroke-width="3.2" stroke-miterlimit="10"/><path d="M1414 285l-10 24-11-24h-8l14 34h8l15-34h-8zm48 34v-34h-6l-13 21-12-21h-7v34h8v-20l10 16h3l10-16v20h7zm30-98c5 2 6 6 7 10l1 3 3 6c2 2 4 4 4 8a6 6 0 01-2 6l-8 5c-3 1-7 3-10 6l-6 6c-4 4-9 6-14 7a15 15 0 01-17-10v-1l-14-1-14 1a673 673 0 00-11 2c-2 5-7 7-12 7-6 0-12-1-17-4-4-2-8-3-13-3l-10-2c-6-1-9-5-7-11v-2c2-4 1-7 1-11v-6a9 9 0 015-7l6-2 3-3 5-6 1-1c-1-8 0-15 3-22 5-12 12-22 19-32 5-5 8-12 9-19v-14c0-7-1-14 1-21 3-11 9-18 21-20h15c8 2 13 7 16 14 3 6 4 11 4 17v15c0 8 2 15 7 21l12 16c6 8 11 16 13 26 2 7 2 15-1 22zm-97-45c-4 6-7 12-9 19-2 4-2 8-2 13 1 6 4 10 9 13l13 10 5 8c1 3-1 6-4 7h-2l5 7 1 1c5 3 11 5 18 5 8 0 16-3 23-8v-1l3-15 2-11a12 12 0 017-9 2 2 0 000-1l4-5h5l10 4c3 2 5 4 4 7l2-1a6 6 0 00-3-6l-9-6c2-6 0-13-2-19-3-6-6-11-11-16l-1 1 1 2c6 5 10 12 11 20 0 4 0 8-2 11h-4v-1c-1-8-4-15-8-22-5-10-10-21-13-32l-1-4-6 4-8 5a15 15 0 01-12 1c-2 0-4-2-6-4l-4-3-3 12-11 26c-3 6-5 13-6 20v6h-1l-3-6c-1-6-1-11 1-17l6-13 1-2zm3 98l3-1c7-1 12-8 8-15l-5-9-8-10-7-14-6-5a7 7 0 00-9 1l-4 5-6 5-4 1a7 7 0 00-5 7l1 5-1 9-1 6a5 5 0 003 5l2 1 11 1c4 0 9 2 13 4 5 2 10 4 15 4zm66-56l-1 1-4 5-2 12-1 10-3 12-1 9c2 6 9 10 15 8 4 0 8-2 11-5l5-5c3-4 8-6 13-8l6-4c3-2 4-4 2-7l-3-5-4-7-2-6a7 7 0 00-5-5h-4l-1 1-8 5c-6 1-10-1-12-6l-1-5zm-39-62l8-2 7-4 4-2 2-2c2-3 1-7-2-8l-13-6a12 12 0 00-14 2l-8 6c-1 1-2 3-1 5l3 4 7 5c2 2 4 2 7 2zm8-25l1-6 4-2a4 4 0 013 2c1 4 1 7-2 10l4 1h2c3-5 3-13-1-17s-9-5-12-1c-3 3-4 7-4 11v1h1l4 1zm-15 0c4-1 4-1 3-5a11 11 0 00-4-7 5 5 0 00-6 0l-2 3-1 8c0 2 1 5 3 7l3-2a8 8 0 01-2-9l2-2 2 2 1 2 1 3z" fill="#3A556A"/><path d="M1395 176l-1 2-6 13a25 25 0 002 23h1v-6c1-7 3-14 6-20l11-26 3-12 4 3c2 2 4 4 6 4a15 15 0 0012-1l8-5 6-4 1 4 13 32c4 7 7 14 8 22v1h4c2-3 2-7 2-11-1-8-5-15-11-20l-1-2h1c5 4 8 9 11 15 2 7 4 13 2 19l9 6a6 6 0 013 6c-1 1-1 2-2 1 1-3-1-5-4-6-3-3-7-4-10-5h-5l-4 5a2 2 0 010 2 12 12 0 00-7 8l-2 11-3 15v1c-7 5-15 8-23 8a31 31 0 01-19-6l-5-7h2c3 0 5-3 4-7l-5-8-13-10c-5-3-8-7-9-13 0-5 0-9 2-13 2-7 5-13 9-19z" fill="#fff"/><path d="M1398 274c-5 0-10-2-15-4-4-2-9-4-13-4l-11-2h-2a5 5 0 01-3-5l1-6 1-9-1-5a7 7 0 015-7l3-2c3 0 5-2 7-4l4-5a7 7 0 019-2l6 6 7 14 8 10 5 9c4 7-1 14-8 15l-3 1zm66-56l1 5c2 5 6 7 12 5l8-5h5a7 7 0 015 5l2 6 4 7 3 5c2 3 1 5-1 7l-7 4c-5 2-10 4-13 8l-5 5c-3 3-7 5-10 5-7 2-14-2-15-8v-9l3-12 1-10 2-12 4-5 1-1zm-39-62c-3 0-5 0-7-2l-7-5-3-4c-1-2 0-4 1-5l8-6a12 12 0 0114-2l13 6c3 1 4 5 2 8l-2 2-4 2-7 4-8 2zm-15-14l1 2 3 3c4 3 8 5 13 3a34 34 0 0015-8v-1h-1l-1 1-9 6-9 2c-4-1-8-4-11-7l-1-1zm13-8a3 3 0 00-3 0l-1 1 1 1 3-2zm4 0l2 2 1-1-3-1z" fill="#FFD85A"/><path d="M1433 131l-4-1h-1v-1c0-4 1-8 4-11 3-4 9-3 12 1s4 12 1 17h-2l-4-1c3-3 3-6 2-10a4 4 0 00-3-2l-4 2-1 6zm-15 0l-1-3-1-2-2-2-2 2a8 8 0 002 9l-3 2c-2-2-3-5-3-7-1-3 0-6 1-8l2-3a5 5 0 016 0 11 11 0 014 7c1 4 1 4-3 5z" fill="#fff"/><path d="M1410 142l1 1c3 3 7 6 11 7l9-2 9-6 1-1h1v1l-5 4-10 4c-5 2-9 0-13-3l-3-3-1-2zm13-8l-3 2-1-1 1-1a3 3 0 013 0zm4 0l3 1-1 1-2-2z" fill="#000"/><path d="M959 1106H816v143h143v-143z" fill="#66788C"/><path d="M912 1149h-22a5 5 0 00-5 4v24h-22a5 5 0 00-5 5v22a5 5 0 005 5h22a5 5 0 005-5v-24h22a5 5 0 005-4v-23a5 5 0 00-5-4z" fill="#FFD85A"/><path d="M932 1125h-62a8 8 0 00-7 8v20h-20a8 8 0 00-8 8v62a8 8 0 008 7h62a8 8 0 008-7v-20h19a8 8 0 006-3 8 8 0 002-5v-62a8 8 0 00-8-8zm-6 60a4 4 0 01-4 4h-23v23a4 4 0 01-5 5h-41a4 4 0 01-4-5v-41a4 4 0 014-4h23v-24a4 4 0 015-4h41a4 4 0 014 4v42z" fill="#EBF0F3"/></svg>