<svg width="329" height="110" viewBox="0 0 329 110" fill="none" xmlns="http://www.w3.org/2000/svg">
<path d="M72.5494 36.2745C72.5494 16.2406 56.3088 -5.53131e-05 36.2749 -5.53131e-05V36.2745H72.5494Z" fill="#2A61ED"/>
<path d="M72.5494 72.9865C72.5494 52.7112 56.3088 36.2749 36.2749 36.2749V72.9865H72.5494Z" fill="#FF3D31"/>
<path d="M0.00036942 36.2752C0.000367648 56.5504 16.241 72.9867 36.2749 72.9867L36.2749 36.2752L0.00036942 36.2752Z" fill="#FC8881"/>
<path d="M36.2754 109.261C56.3093 109.261 72.5499 93.0206 72.5499 72.9867L36.2754 72.9867L36.2754 109.261Z" fill="#8847C4"/>
<path d="M0.000369382 72.9863C0.000367631 93.0202 16.241 109.261 36.2749 109.261L36.2749 72.9863L0.000369382 72.9863Z" fill="#2A61ED"/>
<path d="M36.2745 0.000362829C16.2407 0.00036259 2.38901e-07 16.241 0 36.2749L36.2745 36.2749L36.2745 0.000362829Z" fill="black"/>
<path d="M134.246 62.0304C134.246 53.692 127.684 52.1241 119.727 50.8412C112.677 49.7009 110.652 48.7744 110.652 46.1375C110.652 43.2867 114.073 41.0061 118.819 41.0061C123.217 41.0061 126.637 43.0016 127.475 46.9214H133.478C132.71 39.7233 127.126 35.4471 118.819 35.4471C109.186 35.4471 104.719 41.0774 104.719 46.3513C104.719 53.2644 110.024 55.4024 118.749 56.6853C127.545 57.8968 128.522 59.8211 128.522 62.3868C128.522 65.5939 125.102 68.3734 119.517 68.3734C114.352 68.3734 110.233 65.7364 109.466 61.4603H103.463C104.44 69.2286 110.792 74.0036 119.517 74.0036C128.103 74.0036 134.246 69.3711 134.246 62.0304Z" fill="white"/>
<path d="M156.648 67.5182C152.25 67.8032 148.341 66.164 148.341 59.6786V42.1464H156.508V36.3736H148.341V28.5341H142.478V36.3736H137.591V42.1464H142.478V59.6786C142.478 69.0148 148.271 74.0749 156.648 73.0771V67.5182Z" fill="white"/>
<path d="M192.663 36.3736H186.73V58.8946C186.73 64.3823 182.681 68.4446 177.376 68.4446C171.652 68.4446 168.511 64.5961 168.511 58.7521V36.3736H162.648V58.467C162.648 67.5181 167.674 73.9323 176.469 73.9323C180.866 73.9323 184.496 72.0794 186.939 69.0861V73.0771H192.663V36.3736Z" fill="white"/>
<path d="M232.601 61.6741H226.249C224.294 65.6652 220.595 68.3734 215.848 68.3734C209.217 68.3734 203.772 62.3155 203.772 54.761C203.772 47.2065 209.217 41.0061 215.848 41.0061C220.525 41.0061 224.224 43.7143 226.249 47.7054H232.601C230.158 40.2934 223.875 35.4471 215.848 35.4471C205.936 35.4471 197.839 44.1419 197.839 54.761C197.839 65.3801 205.936 73.9323 215.848 73.9323C223.875 73.9323 230.227 69.0861 232.601 61.6741Z" fill="white"/>
<path d="M253.925 35.4471C243.733 35.4471 235.846 44.142 235.846 54.8323C235.846 65.3801 243.733 73.9323 253.925 73.9323C264.186 73.9323 272.004 65.3801 272.004 54.8323C272.004 44.142 264.186 35.4471 253.925 35.4471ZM253.925 68.3734C247.293 68.3734 241.849 62.3155 241.849 54.8323C241.849 47.2065 247.293 41.0061 253.925 41.0061C260.626 41.0061 266.07 47.2065 266.07 54.8323C266.07 62.3155 260.626 68.3734 253.925 68.3734Z" fill="white"/>
<path d="M329 50.3423C329 41.2199 323.974 35.4471 315.668 35.4471C310.502 35.4471 306.663 37.9416 304.429 41.7188C302.196 37.799 298.426 35.4471 293.331 35.4471C289.352 35.4471 286.001 37.3001 283.768 40.3647V36.3736H278.044V73.0771H283.977V50.6274C283.977 45.1397 287.607 41.0061 292.493 41.0061C297.798 41.0061 300.59 44.4983 300.59 50.1998V73.0771H306.454V50.6274C306.454 45.1397 310.014 41.0061 314.9 41.0061C320.414 41.0061 323.067 44.4983 323.067 50.1998V73.0771H329V50.3423Z" fill="white"/>
</svg>
